<?xml version="1.0" encoding="iso-8859-1"?>
<!-- Generator: Adobe Illustrator 16.0.0, SVG Export Plug-In . SVG Version: 6.00 Build 0)  -->
<!DOCTYPE svg PUBLIC "-//W3C//DTD SVG 1.1//EN" "http://www.w3.org/Graphics/SVG/1.1/DTD/svg11.dtd">
<svg version="1.1" id="Capa_1" xmlns="http://www.w3.org/2000/svg" xmlns:xlink="http://www.w3.org/1999/xlink" x="0px" y="0px"
	 width="456.086px" height="456.087px" viewBox="0 0 456.086 456.087" style="enable-background:new 0 0 456.086 456.087;"
	 xml:space="preserve">
<g>
	<g>
		<path d="M120.451,252.024c12.008,87.042,27.461,169.679,43.767,188.409c12.046,13.846,41.449,15.653,55.972,15.653
			c3.895,0,6.72-0.128,7.851-0.185c1.13,0.061,3.955,0.185,7.85,0.185c14.516,0,43.918-1.8,55.976-15.653
			c16.307-18.73,31.756-101.367,43.77-188.409c6.039-43.773-13.745-64.673-38.724-74.664v3.198c0,1.076-0.208,2.096-0.316,3.14
			c-0.196,2.02-0.573,3.967-1.15,5.849c7.041,3.162,13.401,7.372,18.294,12.982c9.646,11.07,13.088,27.178,10.227,47.885
			c-20.017,145.032-35.333,175.789-40.983,182.289c-6.231,7.162-24.281,11.61-47.092,11.61c-3.572,0-6.163-0.116-7.199-0.169
			l-0.651-0.048l-0.651,0.048c-1.036,0.053-3.626,0.169-7.199,0.169c-22.814,0-40.854-4.448-47.087-11.61
			c-5.654-6.491-20.967-37.257-40.988-182.289c-2.855-20.707,0.583-36.814,10.231-47.885c4.16-4.773,9.409-8.478,15.206-11.445
			c-0.675-1.875-1.168-3.815-1.477-5.831c-0.229-1.549-0.471-3.086-0.471-4.694v-1.671
			C132.359,189.421,114.704,210.357,120.451,252.024z"/>
		<path d="M149.065,272.246c8.816,69.137,20.158,134.762,32.129,149.642c8.851,11,30.431,12.427,41.092,12.427
			c2.855,0,4.929-0.108,5.761-0.152c0.832,0.044,2.906,0.152,5.761,0.152c10.665,0,32.245-1.442,41.09-12.427
			c11.979-14.88,23.307-80.505,32.131-149.642c4.869-38.162-13.132-54.385-33.922-61.321c-2.441,0.609-4.953,1.034-7.582,1.034
			h-4.056h-66.824h-7.64c-1.868,0-3.673-0.232-5.454-0.547C161.373,218.617,144.309,234.957,149.065,272.246z"/>
		<path d="M187.006,196.257h78.503c7.29,0,13.356-4.981,15.124-11.713c0.349-1.276,0.577-2.607,0.577-3.985v-1.948v-6.1V15.699
			C281.21,7.025,274.19,0,265.509,0h-78.503c-8.674,0-15.701,7.025-15.701,15.699v157.684v6.194v0.982
			c0,1.701,0.336,3.312,0.84,4.853C174.202,191.689,180.033,196.257,187.006,196.257z"/>
	</g>
</g>
<g>
</g>
<g>
</g>
<g>
</g>
<g>
</g>
<g>
</g>
<g>
</g>
<g>
</g>
<g>
</g>
<g>
</g>
<g>
</g>
<g>
</g>
<g>
</g>
<g>
</g>
<g>
</g>
<g>
</g>
</svg>
