<?xml version="1.0" encoding="iso-8859-1"?>
<!-- Generator: Adobe Illustrator 16.0.0, SVG Export Plug-In . SVG Version: 6.00 Build 0)  -->
<!DOCTYPE svg PUBLIC "-//W3C//DTD SVG 1.1//EN" "http://www.w3.org/Graphics/SVG/1.1/DTD/svg11.dtd">
<svg version="1.1" id="Capa_1" xmlns="http://www.w3.org/2000/svg" xmlns:xlink="http://www.w3.org/1999/xlink" x="0px" y="0px"
	 width="454.209px" height="454.209px" viewBox="0 0 454.209 454.209" style="enable-background:new 0 0 454.209 454.209;"
	 xml:space="preserve">
<g>
	<g>
		<path d="M227.104,433.856c-91.231,0-166.603-27.667-178.731-63.605c-1.122,3.334-1.751,6.708-1.751,10.171
			c0,40.755,80.808,73.788,180.482,73.788c99.685,0,180.49-33.033,180.49-73.788c0-3.451-0.621-6.837-1.747-10.171
			C393.701,406.181,318.334,433.856,227.104,433.856z"/>
		<path d="M277.862,278.4v-18.426c58.297-20.606,99.172-68.644,99.172-124.615C377.034,60.601,304.111,0,214.175,0
			C124.234,0,51.319,60.608,51.319,135.359c0,59.364,46.001,109.768,109.978,128.029V280.5
			c-67.125,10.765-114.683,37.458-114.683,68.712c0,40.764,80.804,73.788,180.482,73.788c99.677,0,180.49-33.024,180.49-73.788
			C407.587,315.673,352.825,287.369,277.862,278.4z M86.576,142.572c0-56.563,59.027-102.414,131.838-102.414
			c72.813,0,131.834,45.851,131.834,102.414s-59.021,102.414-131.834,102.414C145.604,244.986,86.576,199.143,86.576,142.572z
			 M226.634,408.481c-73.973,0-133.952-27.354-133.952-61.101c0-33.747,59.979-61.086,133.952-61.086
			c73.983,0,133.95,27.339,133.95,61.086C360.584,381.126,300.617,408.481,226.634,408.481z"/>
		<path d="M191.831,69.746c-1.583-1.491-4.075-1.391-5.542,0.204l-68.04,73.268c-1.475,1.587-1.381,4.068,0.206,5.542
			c0.754,0.706,1.711,1.05,2.669,1.05c1.05,0,2.104-0.42,2.875-1.252l68.038-73.268C193.515,73.703,193.418,71.222,191.831,69.746z"
			/>
		<path d="M200.279,87.801l-56.757,61.124c-1.477,1.587-1.385,4.075,0.202,5.542c0.755,0.705,1.713,1.052,2.669,1.052
			c1.054,0,2.104-0.422,2.875-1.254l56.757-61.124c1.477-1.587,1.385-4.076-0.202-5.544
			C204.229,86.106,201.74,86.198,200.279,87.801z"/>
	</g>
</g>
<g>
</g>
<g>
</g>
<g>
</g>
<g>
</g>
<g>
</g>
<g>
</g>
<g>
</g>
<g>
</g>
<g>
</g>
<g>
</g>
<g>
</g>
<g>
</g>
<g>
</g>
<g>
</g>
<g>
</g>
</svg>
