<?xml version="1.0" encoding="iso-8859-1"?>
<!-- Generator: Adobe Illustrator 16.0.0, SVG Export Plug-In . SVG Version: 6.00 Build 0)  -->
<!DOCTYPE svg PUBLIC "-//W3C//DTD SVG 1.1//EN" "http://www.w3.org/Graphics/SVG/1.1/DTD/svg11.dtd">
<svg version="1.1" id="Capa_1" xmlns="http://www.w3.org/2000/svg" xmlns:xlink="http://www.w3.org/1999/xlink" x="0px" y="0px"
	 width="492.005px" height="492.006px" viewBox="0 0 492.005 492.006" style="enable-background:new 0 0 492.005 492.006;"
	 xml:space="preserve">
<g>
	<g>
		<path d="M341.97,0c-37.549,0-89.527,21.312-106.77,50.476v-2.347c0,0-4.907,7.851-13.737,7.851v5.887h-12.758v-1.961
			c0-8.674-7.027-15.701-15.701-15.701h-1.961c-8.676,0-15.701,7.027-15.701,15.701v26.81c-8.652,5.526-14.421,15.152-14.421,26.181
			c0,0.874,0.188,1.693,0.261,2.544c-9.295,1.798-15.168,4.378-15.168,7.268c0,2.859,5.769,5.424,14.916,7.216
			c-3.737,2.873-6.188,7.331-6.188,12.411v29.236c-50.61,15.849-87.336,63.101-87.336,118.938c0,39.758,18.69,75.1,47.692,97.918
			h-0.126c0,0,47.62,38.114,47.62,44.679v6.56c0,0-3.393,2.946-14.475,9.277c-0.501,0.277-0.966,0.554-1.499,0.854
			c-0.223,0.129-0.387,0.229-0.613,0.345c-0.08,0.044-0.102,0.093-0.18,0.137c-7.113,4.356-11.369,9.722-11.369,15.564
			c0,14.451,25.774,26.165,57.567,26.165c31.797,0,57.566-11.714,57.566-26.165c0-4.953-3.086-9.577-8.352-13.524
			c-0.242-0.689-0.87-1.411-2.238-2.177c-12.857-7.193-16.579-10.476-16.579-10.476h-0.958v-6.315l0.793-0.244
			c0-6.564,47.62-44.679,47.62-44.679l-1.014,0.076c29.059-22.814,47.785-58.18,47.785-97.994
			c0-55.837-36.721-103.081-87.336-118.938v-29.236c0-5.071-2.449-9.538-6.186-12.411c9.145-1.792,14.917-4.356,14.917-7.216
			c0-2.881-5.871-5.47-15.168-7.268c0.07-0.857,0.258-1.671,0.258-2.544c0-11.028-5.771-20.654-14.421-26.181v-8.165h12.756v5.887
			c8.833,0,13.739,7.851,13.739,7.851V89.94c17.242,29.156,69.213,50.476,106.778,50.476c45.62,0,82.613-31.432,82.613-70.204
			S387.599,0,341.97,0z"/>
	</g>
</g>
<g>
</g>
<g>
</g>
<g>
</g>
<g>
</g>
<g>
</g>
<g>
</g>
<g>
</g>
<g>
</g>
<g>
</g>
<g>
</g>
<g>
</g>
<g>
</g>
<g>
</g>
<g>
</g>
<g>
</g>
</svg>
